<svg width="1411" height="283" viewBox="0 0 1411 283" fill="none" xmlns="http://www.w3.org/2000/svg">
<path d="M207.488 69.7297L207.488 0L-1.52588e-05 -9.0696e-06L-1.83068e-05 69.7297L207.488 69.7297Z" fill="white"/>
<path d="M69.7295 207.488L69.7295 0L-0.000175476 -3.04798e-06L-0.000184546 207.488L69.7295 207.488Z" fill="white"/>
<path d="M69.7324 207.488L69.7324 277.218L277.221 277.218L277.221 207.488L69.7324 207.488Z" fill="white"/>
<path d="M207.491 69.7295L207.491 277.218L277.221 277.218L277.221 69.7295L207.491 69.7295Z" fill="white"/>
<path d="M1307.25 282.37C1248.77 282.37 1204.9 242.683 1204.9 172.559C1204.9 105.419 1248.77 62.7476 1307.25 62.7476C1365.74 62.7476 1410.5 106.314 1410.5 172.559C1410.5 242.385 1365.74 282.37 1307.25 282.37ZM1307.25 249.248C1344.26 249.248 1370.22 221.795 1370.22 172.559C1370.22 125.71 1344.55 95.87 1307.25 95.87C1269.95 95.87 1245.19 125.113 1245.19 172.559C1245.19 221.198 1270.25 249.248 1307.25 249.248Z" fill="white"/>
<path d="M1114.8 277.001H1075.71V101.243H1005.89V68.1206H1184.33V101.243H1114.8V277.001Z" fill="white"/>
<path d="M883.537 282.372C830.124 282.372 798.493 251.637 798.493 197.328V68.1206H837.882V191.36C837.882 230.152 853.697 249.25 883.537 249.25C913.079 249.25 929.192 229.555 929.192 191.36V68.1206H968.283V197.328C968.283 251.637 936.652 282.372 883.537 282.372Z" fill="white"/>
<path d="M767.192 277.001H623.064V68.1206H662.155V243.878H767.192V277.001Z" fill="white"/>
<path d="M454.322 277.001H415.231V68.1206H502.961C546.528 68.1206 579.352 86.6214 579.352 130.785C579.352 176.141 545.036 193.449 502.961 193.449H454.322V277.001ZM454.322 101.243V160.326H502.961C528.027 160.326 539.068 148.987 539.068 130.785C539.068 112.582 528.624 101.243 502.961 101.243H454.322Z" fill="white"/>
</svg>
